<svg aria-hidden="true" style="position: absolute; width: 0; height: 0; overflow: hidden;" version="1.1" xmlns="http://www.w3.org/2000/svg" xmlns:xlink="http://www.w3.org/1999/xlink">
<defs>
<symbol id="icon-shopping-cart" viewBox="0 0 16 16">
<title>shopping-cart</title>
<path d="M13 8H6V4h8v2h-1v2zM0 0v2h1v1h2v2h1v3h1v1h1v1H3v3h1v1h2v-2h7v1h1v1h2v-4H7V9h7V8h1V7h1V5h1V2H5V1H4V0H0z"></path>
</symbol>
<symbol id="icon-house-outline" viewBox="0 0 32 32">
<title>house-outline</title>
<path d="M3.833 19.075v12.362c0 0.31 0.252 0.563 0.563 0.563h13.267v-11.194h6.232v11.194h3.708c0.311 0 0.563-0.253 0.563-0.563v-12.362l-12.16-12.107-12.174 12.107zM13.728 26.021h-5.624v-5.214h5.624v5.214z"></path>
<path d="M30.632 14.63l-14.631-14.63-6.902 6.901v-3.037c0-0.709-0.576-1.285-1.285-1.285s-1.285 0.576-1.285 1.285v5.608l-5.159 5.158c-0.628 0.628-0.628 1.645 0 2.272 0.314 0.314 0.725 0.47 1.136 0.47s0.822-0.157 1.136-0.469l12.359-12.358 12.358 12.357c0.628 0.628 1.645 0.628 2.271 0 0.628-0.628 0.628-1.646 0.001-2.273z"></path>
</symbol>
<symbol id="icon-open-book" viewBox="0 0 32 32">
<title>open-book</title>
<path d="M16 24.96v-17.707l9.813-3.627v16.853c-3.2 1.707-6.613 2.773-9.813 4.48zM2.56 3.627c1.707 0.853 2.987 1.067 4.48 1.707 2.347 1.28 2.133 1.493 5.333 1.92v17.707c-3.2-1.707-6.613-2.773-9.813-4.48v-16.853zM28.373 0c-6.187 0.213-9.813 4.693-14.080 4.693-4.48 0-8.107-4.48-14.293-4.693v23.253c3.84 0.853 11.307 5.12 14.293 5.12 2.773 0 10.24-4.267 14.080-5.12v-23.253z"></path><path d="M3.627 12.587c0.64 2.56 0.427 2.133 2.773 3.2 1.92 1.067 2.56 1.067 5.12 1.28v-2.773c-2.987-0.64-6.187-3.627-7.893-1.707zM16.853 14.293v2.773c4.267-0.213 7.040-1.067 8.107-4.48-3.627-1.707-3.84 0.64-8.107 1.707zM3.627 17.92c1.067 1.493 4.693 4.907 6.827 3.84 3.627-1.493-3.413-4.693-5.12-4.693-0.427 0-1.707 0.64-1.707 0.853zM3.627 8.107c1.067 1.707 4.693 4.907 6.827 3.84 3.627-1.28-3.413-4.693-5.12-4.693-0.427 0-1.707 0.64-1.707 0.853zM24.96 8.107c-0.213 0-1.707-0.853-1.92-0.853-1.28 0-7.893 2.347-5.547 4.48 1.707 1.707 6.187-1.707 7.467-3.627zM24.96 17.92c-0.213 0-1.707-0.853-1.92-0.853-1.28 0-7.893 2.133-5.547 4.48 1.707 1.707 6.187-1.92 7.467-3.627z"></path>
</symbol>
<symbol id="icon-picture" viewBox="0 0 32 32">
<title>picture</title>
<path d="M2.56 2.56h23.253v23.253h-23.253v-23.253zM28.373 28.373v-28.373h-28.373v28.373h28.373z"></path><path d="M3.627 11.52h0.853v0.853h1.707v-0.853h0.853v-4.48h4.48v-0.853h0.853v-1.707h-0.853v-0.853h-7.893zM16.853 4.48h-0.853v1.707h0.853v0.853h4.48v4.48h0.853v0.853h1.707v-0.853h1.067v-7.893h-8.107zM4.48 16.853h-0.853v8.107h7.893v-1.067h0.853v-1.707h-0.853v-0.853h-4.48v-4.48h-0.853v-0.853h-1.707zM22.187 16.853h-0.853v4.48h-4.48v0.853h-0.853v1.707h0.853v1.067h8.107v-8.107h-1.067v-0.853h-1.707z"></path>
</symbol>
<symbol id="icon-search" viewBox="0 0 32 32">
<title>search</title>
<path d="M30.978 29.147l-7.616-7.921c1.958-2.328 3.031-5.257 3.031-8.306 0-7.124-5.796-12.92-12.92-12.92s-12.92 5.796-12.92 12.92 5.796 12.92 12.92 12.92c2.674 0 5.223-0.807 7.402-2.338l7.674 7.981c0.321 0.333 0.752 0.517 1.214 0.517 0.438 0 0.853-0.167 1.168-0.47 0.67-0.644 0.691-1.713 0.047-2.383zM13.473 3.37c5.266 0 9.55 4.284 9.55 9.55s-4.284 9.55-9.55 9.55-9.55-4.284-9.55-9.55 4.284-9.55 9.55-9.55z"></path>
</symbol>
<symbol id="icon-alarm" viewBox="0 0 32 32">
<title>alarm</title>
<path d="M4.48 10.667h0.853v-1.707h0.853v-0.853h0.853v-0.853h0.853v-1.067h0.853v-0.853h1.92v-0.853h7.040v0.853h1.707v0.853h1.067v1.067h0.853v0.853h0.853v0.853h0.853v1.707h0.853v7.253h-0.853v1.707h-0.853v0.853h-0.853v0.853h-0.853v0.853h-1.067v1.067h-1.707v0.853h-7.040v-0.853h-1.92v-1.067h-0.853v-0.853h-0.853v-0.853h-0.853v-0.853h-0.853v-1.707h-0.853v-7.253zM8.747 1.92v0.853h-1.707v0.853h-0.853v0.853h-0.853v0.853h-0.853v0.853h-1.067v1.067h-0.853v1.707h-0.853v2.56h-0.853v5.333h0.853v2.773h0.853v1.707h0.853v0.853h1.067v1.92h-1.067v0.853h-0.853v1.707h0.853v0.853h1.067v-0.853h0.853v-0.853h3.413v0.853h2.773v0.853h5.333v-0.853h2.56v-0.853h1.92v-0.853h0.853v0.853h0.853v0.853h0.853v0.853h0.853v-0.853h1.067v-1.707h-1.067v-0.853h-0.853v-1.92h0.853v-0.853h1.067v-1.707h0.853v-2.773h0.853v-5.333h-0.853v-2.56h-0.853v-1.707h-1.067v-1.067h-0.853v-0.853h-0.853v-0.853h-0.853v-0.853h-0.853v-0.853h-1.92v-0.853h-2.56v-1.067h-5.333v1.067h-2.773z"></path>
<path d="M13.227 6.187h-0.853v8.96h0.853v0.853h7.253v-0.853h0.853v-1.707h-0.853v-0.853h-4.48v-6.4h-0.853v-0.853h-1.92zM1.707 8.96v-1.707h0.853v-1.92h0.853v-0.853h1.067v-0.853h0.853v-0.853h1.707v-0.853h1.707v-1.067h-0.853v-0.853h-5.333v0.853h-0.853v1.067h-0.853v0.853h-0.853v5.333h0.853v0.853zM21.333 2.773h1.707v0.853h0.853v0.853h0.853v0.853h1.067v1.92h0.853v0.853h1.707v-5.333h-0.853v-0.853h-0.853v-1.067h-0.853v-0.853h-5.333v1.92h0.853z"></path>
</symbol>
<symbol id="icon-display" viewBox="0 0 32 32">
<title>display</title>
<path d="M2.773 1.707h23.040v15.147h-23.040v-15.147zM0.853 0.853h-0.853v18.773h0.853v0.853h8.96v2.56h-0.853v0.853h-0.853v1.067h12.373v-1.067h-0.853v-0.853h-0.853v-2.56h8.747v-0.853h1.067v-18.773h-1.067v-0.853h-26.667v0.853z"></path><path d="M16 7.040h-0.853v0.853h-0.853v1.067h-1.707v-1.067h-1.92v1.067h-0.853v0.853h0.853v0.853h0.853v0.853h1.067v0.853h1.707v-0.853h0.853v-0.853h0.853v-0.853h0.853v-0.853h1.067v-1.067h0.853v-0.853h-0.853v-0.853h-1.92z"></path>
</symbol>
<symbol id="icon-stats-dots" viewBox="0 0 32 32">
<title>stats-dots</title>
<path d="M2.56 2.56h23.253v23.040h-23.253v-23.040zM28.373 28.373v-28.373h-28.373v28.373h28.373z"></path><path d="M22.187 11.52h-0.853v0.853h-1.707v0.853h-1.067v0.853h-1.707v0.853h-0.853v1.067h-0.853v-1.067h-1.92v-0.853h-0.853v-0.853h-1.707v-0.853h-0.853v-0.853h-1.92v0.853h-1.707v0.853h-0.853v0.853h-0.853v0.853h-0.853v1.067h0.853v0.853h2.56v-0.853h0.853v-1.067h1.92v1.067h0.853v0.853h1.707v0.853h0.853v0.853h1.92v0.853h0.853v-0.853h1.707v-0.853h0.853v-0.853h1.92v-0.853h0.853v-1.067h1.707v-0.853h0.853v-0.853h1.067v-1.707h-1.067v-0.853h-1.707z"></path>
</symbol>
<symbol id="icon-facebook" viewBox="0 0 24 24">
<title>facebook</title>
<path d="M10.453 0h-6.187v0.853h-1.067v0.853h-0.853v2.56h-0.853v3.627h-1.707v3.627h1.707v11.52h5.333v-11.52h3.627v-3.627h-3.627v-2.56h0.853v-1.067h2.773z"></path>
</symbol>
<symbol id="icon-instagram" viewBox="0 0 32 32">
<title>instagram</title>
<path d="M16 2.881c4.275 0 4.781 0.019 6.462 0.094 1.563 0.069 2.406 0.331 2.969 0.55 0.744 0.288 1.281 0.638 1.837 1.194 0.563 0.563 0.906 1.094 1.2 1.838 0.219 0.563 0.481 1.412 0.55 2.969 0.075 1.688 0.094 2.194 0.094 6.463s-0.019 4.781-0.094 6.463c-0.069 1.563-0.331 2.406-0.55 2.969-0.288 0.744-0.637 1.281-1.194 1.837-0.563 0.563-1.094 0.906-1.837 1.2-0.563 0.219-1.413 0.481-2.969 0.55-1.688 0.075-2.194 0.094-6.463 0.094s-4.781-0.019-6.463-0.094c-1.563-0.069-2.406-0.331-2.969-0.55-0.744-0.288-1.281-0.637-1.838-1.194-0.563-0.563-0.906-1.094-1.2-1.837-0.219-0.563-0.481-1.413-0.55-2.969-0.075-1.688-0.094-2.194-0.094-6.463s0.019-4.781 0.094-6.463c0.069-1.563 0.331-2.406 0.55-2.969 0.288-0.744 0.638-1.281 1.194-1.838 0.563-0.563 1.094-0.906 1.838-1.2 0.563-0.219 1.412-0.481 2.969-0.55 1.681-0.075 2.188-0.094 6.463-0.094zM16 0c-4.344 0-4.887 0.019-6.594 0.094-1.7 0.075-2.869 0.35-3.881 0.744-1.056 0.412-1.95 0.956-2.837 1.85-0.894 0.888-1.438 1.781-1.85 2.831-0.394 1.019-0.669 2.181-0.744 3.881-0.075 1.713-0.094 2.256-0.094 6.6s0.019 4.887 0.094 6.594c0.075 1.7 0.35 2.869 0.744 3.881 0.413 1.056 0.956 1.95 1.85 2.837 0.887 0.887 1.781 1.438 2.831 1.844 1.019 0.394 2.181 0.669 3.881 0.744 1.706 0.075 2.25 0.094 6.594 0.094s4.888-0.019 6.594-0.094c1.7-0.075 2.869-0.35 3.881-0.744 1.050-0.406 1.944-0.956 2.831-1.844s1.438-1.781 1.844-2.831c0.394-1.019 0.669-2.181 0.744-3.881 0.075-1.706 0.094-2.25 0.094-6.594s-0.019-4.887-0.094-6.594c-0.075-1.7-0.35-2.869-0.744-3.881-0.394-1.063-0.938-1.956-1.831-2.844-0.887-0.887-1.781-1.438-2.831-1.844-1.019-0.394-2.181-0.669-3.881-0.744-1.712-0.081-2.256-0.1-6.6-0.1v0z"></path>
<path d="M16 7.781c-4.537 0-8.219 3.681-8.219 8.219s3.681 8.219 8.219 8.219 8.219-3.681 8.219-8.219c0-4.537-3.681-8.219-8.219-8.219zM16 21.331c-2.944 0-5.331-2.387-5.331-5.331s2.387-5.331 5.331-5.331c2.944 0 5.331 2.387 5.331 5.331s-2.387 5.331-5.331 5.331z"></path>
<path d="M26.462 7.456c0 1.060-0.859 1.919-1.919 1.919s-1.919-0.859-1.919-1.919c0-1.060 0.859-1.919 1.919-1.919s1.919 0.859 1.919 1.919z"></path>
</symbol>
<symbol id="icon-twitter" viewBox="0 0 26 26">
<title>twitter</title>
<path d="M14.293 0.853h-1.92v0.853h-0.853v1.707h-0.853v2.773h-0.853v-0.853h-2.773v-0.853h-1.707v-1.067h-1.707v-0.853h-0.853v-0.853h-1.92v4.48h0.853v0.853h-0.853v2.773h0.853v0.853h1.067v2.56h0.853v0.853h1.707v1.92h-1.707v0.853h-3.627v0.853h1.707v0.853h3.627v0.853h3.627v-0.853h3.413v-0.853h1.92v-0.853h1.707v-0.853h0.853v-0.853h0.853v-1.92h1.067v-0.853h0.853v-2.56h0.853v-4.48h0.853v-0.853h0.853v-1.067h0.853v-0.853h-0.853v-1.707h-1.707v0.853h-1.707v-0.853h-1.92v-0.853h-2.56z"></path>
</symbol>
<symbol id="icon-pinterest" viewBox="0 0 26 26">
<title>pinterest</title>
<path d="M5.333 0.853h-1.707v0.853h-0.853v0.853h-0.853v1.067h-1.067v1.707h-0.853v6.187h0.853v0.853h1.067v0.853h1.707v-2.56h-0.853v-4.48h0.853v-1.707h0.853v-0.853h1.707v-1.067h5.333v1.067h1.067v0.853h0.853v2.56h0.853v0.853h-0.853v3.627h-0.853v1.707h-1.067v1.067h-2.56v-1.067h-0.853v-1.707h0.853v-3.627h0.853v-0.853h-0.853v-1.707h-3.627v1.707h-0.853v2.773h0.853v1.707h-0.853v3.627h-0.853v6.187h-0.853v0.853h0.853v0.853h0.853v-0.853h0.853v-1.707h0.853v-2.773h1.067v-1.707h1.707v0.853h3.627v-0.853h1.707v-0.853h0.853v-0.853h0.853v-1.92h0.853v-2.56h1.067v-3.627h-1.067v-2.56h-0.853v-1.067h-0.853v-0.853h-0.853v-0.853h-1.707v-0.853h-7.253z"></path>
</symbol>
</defs>
</svg>
