<svg xmlns="http://www.w3.org/2000/svg" viewBox="0 0 32 32">
<path d="M2.56 2.56h23.253v23.040h-23.253v-23.040zM28.373 28.373v-28.373h-28.373v28.373h28.373z"></path><path d="M22.187 11.52h-0.853v0.853h-1.707v0.853h-1.067v0.853h-1.707v0.853h-0.853v1.067h-0.853v-1.067h-1.92v-0.853h-0.853v-0.853h-1.707v-0.853h-0.853v-0.853h-1.92v0.853h-1.707v0.853h-0.853v0.853h-0.853v0.853h-0.853v1.067h0.853v0.853h2.56v-0.853h0.853v-1.067h1.92v1.067h0.853v0.853h1.707v0.853h0.853v0.853h1.92v0.853h0.853v-0.853h1.707v-0.853h0.853v-0.853h1.92v-0.853h0.853v-1.067h1.707v-0.853h0.853v-0.853h1.067v-1.707h-1.067v-0.853h-1.707z"></path>
</svg>
