
<svg xmlns="http://www.w3.org/2000/svg" viewBox="0 0 32 32">
<path d="M2.773 1.707h23.040v15.147h-23.040v-15.147zM0.853 0.853h-0.853v18.773h0.853v0.853h8.96v2.56h-0.853v0.853h-0.853v1.067h12.373v-1.067h-0.853v-0.853h-0.853v-2.56h8.747v-0.853h1.067v-18.773h-1.067v-0.853h-26.667v0.853z"></path><path d="M16 7.040h-0.853v0.853h-0.853v1.067h-1.707v-1.067h-1.92v1.067h-0.853v0.853h0.853v0.853h0.853v0.853h1.067v0.853h1.707v-0.853h0.853v-0.853h0.853v-0.853h0.853v-0.853h1.067v-1.067h0.853v-0.853h-0.853v-0.853h-1.92z"></path>
</svg>
