<svg xmlns="http://www.w3.org/2000/svg" viewBox="0 0 32 32">
<path d="M2.56 2.56h23.253v23.253h-23.253v-23.253zM28.373 28.373v-28.373h-28.373v28.373h28.373z"></path><path d="M3.627 11.52h0.853v0.853h1.707v-0.853h0.853v-4.48h4.48v-0.853h0.853v-1.707h-0.853v-0.853h-7.893zM16.853 4.48h-0.853v1.707h0.853v0.853h4.48v4.48h0.853v0.853h1.707v-0.853h1.067v-7.893h-8.107zM4.48 16.853h-0.853v8.107h7.893v-1.067h0.853v-1.707h-0.853v-0.853h-4.48v-4.48h-0.853v-0.853h-1.707zM22.187 16.853h-0.853v4.48h-4.48v0.853h-0.853v1.707h0.853v1.067h8.107v-8.107h-1.067v-0.853h-1.707z"></path>
</svg>
