<svg xmlns="http://www.w3.org/2000/svg" viewBox="0 0 26 26">
<path d="M5.333 0.853h-1.707v0.853h-0.853v0.853h-0.853v1.067h-1.067v1.707h-0.853v6.187h0.853v0.853h1.067v0.853h1.707v-2.56h-0.853v-4.48h0.853v-1.707h0.853v-0.853h1.707v-1.067h5.333v1.067h1.067v0.853h0.853v2.56h0.853v0.853h-0.853v3.627h-0.853v1.707h-1.067v1.067h-2.56v-1.067h-0.853v-1.707h0.853v-3.627h0.853v-0.853h-0.853v-1.707h-3.627v1.707h-0.853v2.773h0.853v1.707h-0.853v3.627h-0.853v6.187h-0.853v0.853h0.853v0.853h0.853v-0.853h0.853v-1.707h0.853v-2.773h1.067v-1.707h1.707v0.853h3.627v-0.853h1.707v-0.853h0.853v-0.853h0.853v-1.92h0.853v-2.56h1.067v-3.627h-1.067v-2.56h-0.853v-1.067h-0.853v-0.853h-0.853v-0.853h-1.707v-0.853h-7.253z"></path>
</svg>
