<!-- Generated by IcoMoon.io -->
<svg version="1.1" xmlns="http://www.w3.org/2000/svg" width="32" height="32" viewBox="0 0 32 32">
<title>picture</title>
<path d="M30.642 0h-29.283c-0.745 0-1.358 0.614-1.358 1.358v29.283c0 0.744 0.614 1.358 1.358 1.358h29.349c0.744 0 1.293-0.542 1.293-1.358v-29.283c0-0.745-0.614-1.358-1.358-1.358zM29.349 2.717v7.785l-9.789 11.193-6.243-8.986c-0.274-0.34-1.326-1.045-2.175 0l-8.425 10.808v-20.8h26.632zM2.717 27.912l9.509-12.219 5.538 8.046-4.911 5.61h-10.136v-1.437zM16.496 29.349l12.859-14.746v14.746h-12.859z"></path>
<path d="M20.317 13.113c2.312 0 4.212-1.9 4.212-4.212s-1.9-4.212-4.212-4.212-4.212 1.9-4.212 4.212 1.9 4.212 4.212 4.212zM20.317 7.34c0.882 0 1.561 0.679 1.561 1.561s-0.679 1.561-1.561 1.561-1.561-0.679-1.561-1.561 0.673-1.561 1.561-1.561z"></path>
</svg>
