<!-- Generated by IcoMoon.io -->
<svg version="1.1" xmlns="http://www.w3.org/2000/svg" width="32" height="32" viewBox="0 0 32 32">
<title>house-outline</title>
<path d="M3.833 19.075v12.362c0 0.31 0.252 0.563 0.563 0.563h13.267v-11.194h6.232v11.194h3.708c0.311 0 0.563-0.253 0.563-0.563v-12.362l-12.16-12.107-12.174 12.107zM13.728 26.021h-5.624v-5.214h5.624v5.214z"></path>
<path d="M30.632 14.63l-14.631-14.63-6.902 6.901v-3.037c0-0.709-0.576-1.285-1.285-1.285s-1.285 0.576-1.285 1.285v5.608l-5.159 5.158c-0.628 0.628-0.628 1.645 0 2.272 0.314 0.314 0.725 0.47 1.136 0.47s0.822-0.157 1.136-0.469l12.359-12.358 12.358 12.357c0.628 0.628 1.645 0.628 2.271 0 0.628-0.628 0.628-1.646 0.001-2.273z"></path>
</svg>
