<!-- Generated by IcoMoon.io -->
<svg xmlns="http://www.w3.org/2000/svg" viewBox="0 0 32 32">
<path d="M4.48 10.667h0.853v-1.707h0.853v-0.853h0.853v-0.853h0.853v-1.067h0.853v-0.853h1.92v-0.853h7.040v0.853h1.707v0.853h1.067v1.067h0.853v0.853h0.853v0.853h0.853v1.707h0.853v7.253h-0.853v1.707h-0.853v0.853h-0.853v0.853h-0.853v0.853h-1.067v1.067h-1.707v0.853h-7.040v-0.853h-1.92v-1.067h-0.853v-0.853h-0.853v-0.853h-0.853v-0.853h-0.853v-1.707h-0.853v-7.253zM8.747 1.92v0.853h-1.707v0.853h-0.853v0.853h-0.853v0.853h-0.853v0.853h-1.067v1.067h-0.853v1.707h-0.853v2.56h-0.853v5.333h0.853v2.773h0.853v1.707h0.853v0.853h1.067v1.92h-1.067v0.853h-0.853v1.707h0.853v0.853h1.067v-0.853h0.853v-0.853h3.413v0.853h2.773v0.853h5.333v-0.853h2.56v-0.853h1.92v-0.853h0.853v0.853h0.853v0.853h0.853v0.853h0.853v-0.853h1.067v-1.707h-1.067v-0.853h-0.853v-1.92h0.853v-0.853h1.067v-1.707h0.853v-2.773h0.853v-5.333h-0.853v-2.56h-0.853v-1.707h-1.067v-1.067h-0.853v-0.853h-0.853v-0.853h-0.853v-0.853h-0.853v-0.853h-1.92v-0.853h-2.56v-1.067h-5.333v1.067h-2.773z"></path>
<path d="M13.227 6.187h-0.853v8.96h0.853v0.853h7.253v-0.853h0.853v-1.707h-0.853v-0.853h-4.48v-6.4h-0.853v-0.853h-1.92zM1.707 8.96v-1.707h0.853v-1.92h0.853v-0.853h1.067v-0.853h0.853v-0.853h1.707v-0.853h1.707v-1.067h-0.853v-0.853h-5.333v0.853h-0.853v1.067h-0.853v0.853h-0.853v5.333h0.853v0.853zM21.333 2.773h1.707v0.853h0.853v0.853h0.853v0.853h1.067v1.92h0.853v0.853h1.707v-5.333h-0.853v-0.853h-0.853v-1.067h-0.853v-0.853h-5.333v1.92h0.853z"></path>
</svg>
