<svg xmlns="http://www.w3.org/2000/svg" viewBox="0 0 32 32">
<path d="M16 24.96v-17.707l9.813-3.627v16.853c-3.2 1.707-6.613 2.773-9.813 4.48zM2.56 3.627c1.707 0.853 2.987 1.067 4.48 1.707 2.347 1.28 2.133 1.493 5.333 1.92v17.707c-3.2-1.707-6.613-2.773-9.813-4.48v-16.853zM28.373 0c-6.187 0.213-9.813 4.693-14.080 4.693-4.48 0-8.107-4.48-14.293-4.693v23.253c3.84 0.853 11.307 5.12 14.293 5.12 2.773 0 10.24-4.267 14.080-5.12v-23.253z"></path><path d="M3.627 12.587c0.64 2.56 0.427 2.133 2.773 3.2 1.92 1.067 2.56 1.067 5.12 1.28v-2.773c-2.987-0.64-6.187-3.627-7.893-1.707zM16.853 14.293v2.773c4.267-0.213 7.040-1.067 8.107-4.48-3.627-1.707-3.84 0.64-8.107 1.707zM3.627 17.92c1.067 1.493 4.693 4.907 6.827 3.84 3.627-1.493-3.413-4.693-5.12-4.693-0.427 0-1.707 0.64-1.707 0.853zM3.627 8.107c1.067 1.707 4.693 4.907 6.827 3.84 3.627-1.28-3.413-4.693-5.12-4.693-0.427 0-1.707 0.64-1.707 0.853zM24.96 8.107c-0.213 0-1.707-0.853-1.92-0.853-1.28 0-7.893 2.347-5.547 4.48 1.707 1.707 6.187-1.707 7.467-3.627zM24.96 17.92c-0.213 0-1.707-0.853-1.92-0.853-1.28 0-7.893 2.133-5.547 4.48 1.707 1.707 6.187-1.92 7.467-3.627z"></path>
</svg>
